<svg width="50" height="50" viewBox="0 0 50 50" fill="none" xmlns="http://www.w3.org/2000/svg">
<path d="M20.8333 31.25L20.8333 25" stroke="black" stroke-width="4" stroke-linecap="round"/>
<path d="M29.1667 31.25L29.1667 25" stroke="black" stroke-width="4" stroke-linecap="round"/>
<path d="M6.25 14.5833H43.75H41.5C39.6144 14.5833 38.6716 14.5833 38.0858 15.169C37.5 15.7548 37.5 16.6976 37.5 18.5833V37.6666C37.5 39.5522 37.5 40.495 36.9142 41.0808C36.3284 41.6666 35.3856 41.6666 33.5 41.6666H16.5C14.6144 41.6666 13.6716 41.6666 13.0858 41.0808C12.5 40.495 12.5 39.5522 12.5 37.6666V18.5833C12.5 16.6976 12.5 15.7548 11.9142 15.169C11.3284 14.5833 10.3856 14.5833 8.5 14.5833H6.25Z" stroke="black" stroke-width="4" stroke-linecap="round"/>
<path d="M20.9754 7.02206C21.2128 6.80057 21.7359 6.60485 22.4636 6.46526C23.1913 6.32566 24.0829 6.25 25.0001 6.25C25.9173 6.25 26.8089 6.32566 27.5366 6.46526C28.2643 6.60485 28.7874 6.80057 29.0248 7.02206" stroke="black" stroke-width="4" stroke-linecap="round"/>
</svg>
